<svg width="271" height="97" viewBox="0 0 271 97" fill="none" xmlns="http://www.w3.org/2000/svg">
<path d="M56.7969 94.5781C51.1719 94.5781 46.5078 92.8203 42.8047 89.3047C39.5234 85.9297 37.8828 81.4531 37.8828 75.875C37.8828 71.6562 38.5156 67.2969 39.7812 62.7969C41.6094 56.375 44.9609 48.2891 49.8359 38.5391L52.6484 32.6328C53.0703 31.9297 53.2812 31.5547 53.2812 31.5078C53.3281 31.4609 53.3516 31.4141 53.3516 31.3672C53.3516 31.3203 53.3281 31.2969 53.2812 31.2969L52.9297 32.2109C53.2578 31.2734 53.4219 30.8047 53.4219 30.8047L53.4922 30.2422L53.4219 31.2969L53.5625 30.8047L53.6328 30.875V31.6484H53.5625C53.5156 31.6016 53.4688 31.4609 53.4219 31.2266C58.1094 34.0859 61.0391 35.8438 62.2109 36.5C57.8516 37.3438 53.5156 37.7656 49.2031 37.7656C41.4219 37.7656 33.7578 36.3828 26.2109 33.6172C19.8359 31.3672 15.1953 28.5312 12.2891 25.1094C9.61719 21.9688 8.28125 18.6172 8.28125 15.0547C8.28125 12.4766 8.89062 10.0156 10.1094 7.67188C11.5156 4.95312 13.625 2.98438 16.4375 1.76562C17.9844 1.0625 19.5547 0.710938 21.1484 0.710938C22.4609 0.710938 23.7734 0.945312 25.0859 1.41406C30.5703 3.71094 33.875 7.74219 35 13.5078C35.0938 14.3047 35.1406 15.0781 35.1406 15.8281C35.1406 18.3125 34.5547 20.6797 33.3828 22.9297C32.4922 24.6641 31.625 26.4219 30.7812 28.2031C29.2344 31.4844 28.2266 33.7344 27.7578 34.9531L27.4766 35.5156L27.8984 34.4609L27.6172 35.2344L26.3516 38.1172C22.3672 47.5391 18.0547 56.7969 13.4141 65.8906C12.1484 68.1406 10.0859 69.2656 7.22656 69.2656C5.91406 69.2656 4.64844 68.9609 3.42969 68.3516C1.17969 66.9922 0.0546875 64.9297 0.0546875 62.1641C0.0546875 60.8516 0.359375 59.5859 0.96875 58.3672C3.40625 53.7734 5.70312 49.1328 7.85938 44.4453C9.5 40.6484 10.4609 38.4688 10.7422 37.9062L10.8125 37.7656L10.4609 38.5391L10.5312 38.4688L10.6719 37.9766C11.5156 36.1953 12.2188 34.625 12.7812 33.2656C14.2812 29.75 15.8047 26.2578 17.3516 22.7891C19.6016 18.1484 20.75 15.8047 20.7969 15.7578C20.8438 15.6641 20.8672 15.6172 20.8672 15.6172C20.8672 15.5703 20.9609 15.3828 21.1484 15.0547V15.1953C21.1016 15.2891 21.0312 15.3828 20.9375 15.4766C20.8906 15.5703 20.8438 15.6875 20.7969 15.8281C20.75 15.9219 20.7031 16.0156 20.6562 16.1094C20.6562 16.1562 20.6562 16.2031 20.6562 16.25L20.7969 15.8984L20.8672 15.2656C20.6797 15.7812 20.5859 16.1562 20.5859 16.3906C20.5859 16.5312 20.6094 16.6016 20.6562 16.6016L20.7266 15.6172C20.8203 16.1797 20.8672 16.5078 20.8672 16.6016C20.8672 16.6484 20.8906 16.6953 20.9375 16.7422H20.8672V16.6016L20.7266 16.1094V15.9688C20.5859 15.4531 20.4922 15.1719 20.4453 15.125L20.9375 16.1797L20.0234 14.7031L20.7266 15.6875C20.7266 15.5938 20.6562 15.5 20.5156 15.4062C20.4219 15.3125 20.3516 15.2422 20.3047 15.1953C20.2578 15.1016 20.1172 14.9375 19.8828 14.7031C19.8828 14.6562 19.9062 14.6328 19.9531 14.6328C20.4219 15.0078 20.6797 15.2188 20.7266 15.2656V15.3359L19.6016 14.7734H19.7422L20.8672 15.3359L20.2344 15.125H20.4453C20.5391 15.1719 20.7734 15.1953 21.1484 15.1953L21.4297 15.2656H20.8672L21.0781 15.1953C21.5 15.1953 21.7578 15.1719 21.8516 15.125H21.7812C21.7344 15.1719 21.6875 15.2188 21.6406 15.2656C21.5938 15.2656 21.5234 15.2656 21.4297 15.2656C21.5234 15.2656 21.7109 15.1953 21.9922 15.0547C22.2734 14.9141 22.4609 14.8438 22.5547 14.8438L22.3438 14.9141L21.9922 15.1953L22.9766 14.4922L22.7656 14.6328C22.625 14.7734 22.5547 14.8672 22.5547 14.9141L22.4844 14.9844L23.3281 13.9297V13.8594C23.2812 13.9062 23.2344 13.9531 23.1875 14C23.1875 14.0469 23.1641 14.0938 23.1172 14.1406C23.1172 14.1875 23.0938 14.2109 23.0469 14.2109C22.9062 14.5391 22.7422 14.8438 22.5547 15.125C22.9766 14.5625 23.1875 14.1875 23.1875 14C23.1875 13.9531 23.1641 13.9297 23.1172 13.9297C23.0703 13.9297 23 14.0469 22.9062 14.2812C22.8594 14.4688 22.8125 14.6328 22.7656 14.7734L22.625 15.2656C22.6719 15.2656 22.6953 15.2188 22.6953 15.125C22.6953 15.0312 22.7188 14.9141 22.7656 14.7734V14.0703L22.6953 15.0547C22.6953 15.2422 22.7188 15.3594 22.7656 15.4062H22.8359L22.7656 15.2656V14.9844L22.625 14.7031V14.3516L22.5547 14.2812L22.6953 14.5625C22.7891 14.7031 22.8359 14.8672 22.8359 15.0547C22.8359 15.1484 22.8125 15.1953 22.7656 15.1953C22.7656 15.1484 22.7188 15.0547 22.625 14.9141C22.5781 14.7266 22.5312 14.5625 22.4844 14.4219V14.2812C22.5781 14.375 22.625 14.4922 22.625 14.6328C22.6719 14.7266 22.7188 14.7969 22.7656 14.8438C22.8125 14.8906 22.9062 15.0312 23.0469 15.2656L23.2578 15.6875H23.3281C23.3281 15.6406 23.3047 15.6172 23.2578 15.6172C23.2109 15.5703 23.1172 15.4766 22.9766 15.3359C22.8828 15.1953 22.8125 15.1016 22.7656 15.0547V14.9844L22.9062 15.2656C23.0469 15.4062 23.1875 15.5234 23.3281 15.6172C23.5156 15.9453 23.8203 16.2266 24.2422 16.4609C24.2891 16.5547 24.3359 16.6016 24.3828 16.6016H24.3125C24.2656 16.6016 24.1484 16.5547 23.9609 16.4609C23.8203 16.3203 23.7266 16.2266 23.6797 16.1797L23.6094 16.1094C23.6562 16.1094 23.7031 16.1328 23.75 16.1797C23.7969 16.1797 24.3828 16.6016 25.5078 17.4453C26.3984 17.9609 27.2891 18.4297 28.1797 18.8516C28.2734 18.8516 28.4609 18.9219 28.7422 19.0625L29.1641 19.2734L28.4609 18.9922C28.5078 18.9922 28.6016 19.0391 28.7422 19.1328C28.9297 19.2266 29.0938 19.2969 29.2344 19.3438C29.375 19.3438 29.4688 19.3672 29.5156 19.4141C33.0312 20.8203 36.6875 21.875 40.4844 22.5781C40.5781 22.5781 40.7188 22.625 40.9062 22.7188C41.375 22.8125 41.7969 22.8594 42.1719 22.8594C41.7969 22.8594 41.5625 22.8359 41.4688 22.7891H41.3281C41.7031 22.7891 41.9375 22.8125 42.0312 22.8594H42.4531C43.4844 23.0469 45.0547 23.1875 47.1641 23.2812C49.8828 23.2812 52.0391 23.2344 53.6328 23.1406C53.9141 23.0938 54.2188 23.0703 54.5469 23.0703L55.5312 22.9297C55.4844 23.0234 55.2031 23.0703 54.6875 23.0703C54.875 23.0234 55.0625 23 55.25 23C55.4375 23 56.5625 22.8125 58.625 22.4375C59.1875 22.3438 59.7266 22.2969 60.2422 22.2969C63.7109 22.2969 66.125 24.0781 67.4844 27.6406C67.8125 28.8125 67.9766 29.9609 67.9766 31.0859C67.9766 32.3984 67.6719 33.9688 67.0625 35.7969C66.6406 37.0625 65.3984 39.7578 63.3359 43.8828L62.7031 45.1484L57.7109 55.6953L58.0625 54.7812C57.9688 55.1094 57.8516 55.4141 57.7109 55.6953L56.2344 59.4219C54.4062 64.1562 53.2109 68.4453 52.6484 72.2891C52.6484 71.9609 52.6953 71.6562 52.7891 71.375C52.6016 71.7031 52.5078 72.2188 52.5078 72.9219C52.5078 73.5781 52.4844 74 52.4375 74.1875C52.4375 76.3438 52.4609 77.5625 52.5078 77.8438L52.4375 76.8594C52.5312 77.2344 52.5781 77.5391 52.5781 77.7734L52.9297 79.0391L52.5781 78.125L52.8594 78.6172C53.0469 78.8984 53.1406 79.1328 53.1406 79.3203C53.0469 79.3203 52.9297 79.1797 52.7891 78.8984L52.5781 78.5469C52.625 78.5469 52.7891 78.6875 53.0703 78.9688L53.7031 79.7422C53.375 79.5078 53.2109 79.3906 53.2109 79.3906L52.9297 79.1094L54.4766 79.9531H54.5469V79.8828L54.2656 79.7422C54.0781 79.6484 53.75 79.5547 53.2812 79.4609L55.6719 80.1641L54.4766 80.0234C54.4766 79.9766 54.5234 79.9531 54.6172 79.9531C54.9453 79.9531 55.2734 79.9766 55.6016 80.0234C55.9297 80.0703 56.2812 80.0938 56.6562 80.0938C56.8906 80.0938 57.1016 80.0703 57.2891 80.0234C57.4766 79.9766 57.6406 79.9531 57.7812 79.9531L58.2031 80.0234C58.2031 79.9766 58.1797 79.9531 58.1328 79.9531L57.5703 80.0938H57.2891L57.1484 80.1641V80.0938L57.7812 80.0234L59.6797 79.6016C60.7578 79.2266 61.3672 79.0391 61.5078 79.0391C60.8047 79.1797 60.4531 79.2734 60.4531 79.3203L60.7344 79.25C60.9219 79.25 61.4375 79.0391 62.2812 78.6172C64.3438 77.3516 65.375 76.7188 65.375 76.7188L65.7266 76.4375C65.7266 76.4844 65.7031 76.5312 65.6562 76.5781C65.6094 76.5781 65.5391 76.625 65.4453 76.7188C65.3516 76.7656 65.2578 76.8125 65.1641 76.8594C65.1172 76.9062 65.0703 76.9531 65.0234 77C64.9766 77.0469 64.9297 77.0703 64.8828 77.0703C65.2109 76.6953 65.6094 76.3438 66.0781 76.0156C67.1094 75.3125 68.5625 73.9062 70.4375 71.7969C70.5312 71.5625 70.7188 71.3281 71 71.0938L70.2266 71.9375C70.2734 71.9375 70.3438 71.8672 70.4375 71.7266C70.5312 71.5859 70.6953 71.3984 70.9297 71.1641C73.9297 67.1797 76.5312 62.7266 78.7344 57.8047C80 55.5547 82.0391 54.4297 84.8516 54.4297C87.3828 54.4297 89.375 55.3906 90.8281 57.3125C91.7188 58.5781 92.1641 59.9844 92.1641 61.5312C92.1641 62.8906 91.8359 64.1797 91.1797 65.3984C84.8984 79.2734 76.5781 88.3672 66.2188 92.6797C63.1719 93.9453 60.0312 94.5781 56.7969 94.5781Z" fill="white"/>
<path d="M95.5391 94.9297C90.7578 94.8828 86.4453 93.5234 82.6016 90.8516C77.5391 87.3828 75.0078 82.0859 75.0078 74.9609C75.0078 70.3672 76.4141 64.0859 79.2266 56.1172L79.8594 54.2188C82.7188 45.7344 85.9766 37.4141 89.6328 29.2578C90.0547 28.4141 90.6875 27.7109 91.5312 27.1484C92.9844 26.2578 94.4375 25.8125 95.8906 25.8125C98.375 25.8125 100.32 26.7734 101.727 28.6953C102.617 30.0078 103.062 31.4141 103.062 32.9141C103.062 34.2734 102.734 35.5859 102.078 36.8516C101.984 36.9453 101.797 37.3203 101.516 37.9766L101.375 38.2578L101.797 37.4844L100.109 41.4219C96.3125 50.2812 93.0547 59.7969 90.3359 69.9688C89.9609 71.4219 89.7031 72.6172 89.5625 73.5547C89.5625 73.2266 89.6094 72.875 89.7031 72.5C89.7031 72.9219 89.6562 73.2266 89.5625 73.4141C89.5156 74.1641 89.4922 75.0312 89.4922 76.0156C89.5391 76.2031 89.5625 76.5078 89.5625 76.9297L89.6328 76.4375C89.6328 76.1562 89.5859 76.0156 89.4922 76.0156H89.4219L89.9141 78.0547L89.9844 77.8438C89.9844 77.7969 89.9375 77.6797 89.8438 77.4922C89.7969 77.3047 89.7266 77.1875 89.6328 77.1406C89.5859 77.1406 89.5625 77.1641 89.5625 77.2109L89.6328 77.3516C89.6797 77.4922 89.7266 77.6094 89.7734 77.7031C89.8672 77.7969 89.9375 77.8906 89.9844 77.9844C90.0312 78.0312 90.1484 78.2422 90.3359 78.6172C90.3359 78.5234 90.2656 78.3594 90.125 78.125L89.8438 77.9141V77.9844C90.6875 78.8281 91.1094 79.2734 91.1094 79.3203C91.1562 79.3672 91.1797 79.4141 91.1797 79.4609L91.1094 79.3906C91.0625 79.3906 90.9922 79.3672 90.8984 79.3203C90.8516 79.2266 90.8047 79.1562 90.7578 79.1094C90.7109 79.0625 90.5938 78.9453 90.4062 78.7578L91.3203 79.25C91.8359 79.4844 92.2812 79.7422 92.6562 80.0234L91.6719 79.6016C92.6094 79.9766 93.5 80.2109 94.3438 80.3047L94.625 80.4453C93.875 80.3516 93.5 80.2812 93.5 80.2344C93.8281 80.2344 94.0391 80.2812 94.1328 80.375H96.7344L97.4375 80.3047L96.875 80.375C97.4844 80.375 98.7734 80.0469 100.742 79.3906L101.586 78.9688L100.672 79.4609L102.5 78.5469C104.188 77.7031 105.359 77.0234 106.016 76.5078C106.297 76.3672 106.438 76.25 106.438 76.1562V76.0859C106.297 76.0859 106.109 76.2969 105.875 76.7188C106.016 76.4375 106.391 76.1094 107 75.7344L107.633 75.3125C110.211 73.0625 112.461 70.7656 114.383 68.4219L115.016 67.6484C117.875 63.7109 120.289 60.0078 122.258 56.5391C123.664 54.2891 125.75 53.1641 128.516 53.1641C129.781 53.1641 131.023 53.4922 132.242 54.1484C134.492 55.5547 135.617 57.5938 135.617 60.2656C135.617 61.625 135.289 62.9141 134.633 64.1328C130.367 72.0547 124.93 79.0859 118.32 85.2266C111.195 91.6016 103.602 94.8359 95.5391 94.9297ZM103.766 16.3203H101.938C100.062 16.2734 98.6094 15.7344 97.5781 14.7031L96.7344 14.0703C95.5156 12.7109 94.9062 11.4219 94.9062 10.2031C94.8125 9.875 94.7656 9.35938 94.7656 8.65625C94.7656 7.76562 94.9766 6.92188 95.3984 6.125C95.7266 5.23438 96.2422 4.46094 96.9453 3.80469C97.6484 3.10156 98.4453 2.60938 99.3359 2.32812C100.086 1.95312 100.906 1.76562 101.797 1.76562H103.625C104.938 1.8125 106.18 2.16406 107.352 2.82031C107.82 3.24219 108.312 3.64062 108.828 4.01562C109.672 4.95312 110.258 6.03125 110.586 7.25C110.727 7.95312 110.797 8.67969 110.797 9.42969C110.797 10.3203 110.586 11.1641 110.164 11.9609C109.836 12.8516 109.297 13.625 108.547 14.2812C107.891 14.9844 107.117 15.4766 106.227 15.7578C105.477 16.1328 104.656 16.3203 103.766 16.3203Z" fill="white"/>
<path d="M147.5 95.2109L145.602 95.1406C139.648 94.625 134.398 92.3281 129.852 88.25C124.273 83.2812 121.484 77.1641 121.484 69.8984C121.484 66.8516 122.023 63.8281 123.102 60.8281C123.805 58.9062 124.977 57.4766 126.617 56.5391C127.648 55.9766 128.797 55.6953 130.062 55.6953C132.922 55.6953 135.031 56.9141 136.391 59.3516C137.047 60.5234 137.375 61.7188 137.375 62.9375C137.375 63.5469 137.281 64.1797 137.094 64.8359C136.766 65.8203 136.508 66.8047 136.32 67.7891L136.25 68.0703L136.109 68.8438L136.039 69.4766V71.2344C136.039 71.4688 136.062 71.6328 136.109 71.7266V72.0078L135.969 70.8828L136.109 71.7266C136.203 72.1953 136.32 72.6406 136.461 73.0625C136.555 73.25 136.648 73.5312 136.742 73.9062L136.812 73.9766C136.812 74.0234 136.789 74.0469 136.742 74.0469V73.9062C136.602 73.7656 136.531 73.5547 136.531 73.2734L136.391 72.9922C136.391 73.3672 136.555 73.7188 136.883 74.0469C136.977 74.375 137.234 74.8203 137.656 75.3828L138.008 75.9453L137.938 75.8047C137.844 75.7578 137.703 75.6406 137.516 75.4531C137.375 75.2656 137.305 75.125 137.305 75.0312L137.867 75.6641C138.477 76.4141 139.133 77.1172 139.836 77.7734C139.883 77.7734 139.93 77.8203 139.977 77.9141C140.07 78.0078 140.164 78.125 140.258 78.2656C140.398 78.3594 140.516 78.4062 140.609 78.4062C140.047 77.9844 139.742 77.75 139.695 77.7031C139.695 77.6562 139.672 77.6328 139.625 77.6328L141.031 78.6875L142.578 79.6719C142.906 79.7656 143.234 79.9297 143.562 80.1641C143.562 80.1172 143.492 80.0703 143.352 80.0234L142.648 79.7422C142.789 79.8828 143.398 80.0469 144.477 80.2344C145.18 80.375 145.812 80.5391 146.375 80.7266L146.094 80.6562H145.32C145.32 80.6094 145.344 80.5859 145.391 80.5859L145.742 80.6562L149.258 80.5859L148.273 80.7266H148.484L149.258 80.5156C150.008 80.4219 150.758 80.2344 151.508 79.9531L151.156 80.0938L151.719 79.8125C152.188 79.5781 152.68 79.2969 153.195 78.9688L153.758 78.6875C153.711 78.6875 153.641 78.7344 153.547 78.8281C153.5 78.875 153.406 78.9453 153.266 79.0391C153.172 79.0859 153.078 79.1562 152.984 79.25C152.938 79.2969 152.891 79.3203 152.844 79.3203L153.617 78.6172C154.273 78.1484 154.672 77.75 154.812 77.4219L155.164 77.0703L154.531 77.9141L155.656 76.2266C155.703 76.0859 155.75 75.9688 155.797 75.875C155.891 75.7344 155.961 75.5938 156.008 75.4531C156.102 75.3125 156.172 75.2188 156.219 75.1719C156.219 75.2656 156.172 75.3594 156.078 75.4531C156.031 75.5469 155.984 75.6172 155.938 75.6641C155.938 75.7109 155.867 75.875 155.727 76.1562C156.102 75.5 156.336 74.7734 156.43 73.9766C156.477 73.7422 156.547 73.5312 156.641 73.3438V73.1328H156.711L156.641 73.2734V73.9062L156.57 74.1875H156.5C156.5 73.9062 156.523 73.7188 156.57 73.625V72.3594L156.5 71.5156L156.641 71.7969C156.641 72.1719 156.664 72.3828 156.711 72.4297V72.5C156.617 72.5 156.57 72.3125 156.57 71.9375C156.523 71.8438 156.5 71.7266 156.5 71.5859L155.938 69.8281L155.797 69.5469V69.6172C155.797 69.7109 155.938 70.0391 156.219 70.6016L156.008 70.0391C155.211 68.4453 153.758 66.1719 151.648 63.2188C147.336 57.9688 145.062 52.5078 144.828 46.8359C144.875 43.4141 145.625 40.1797 147.078 37.1328C149.938 31.5547 154.32 27.7344 160.227 25.6719C162.57 24.875 164.961 24.4766 167.398 24.4766C168.852 24.4766 170.938 24.7344 173.656 25.25C176.375 25.7656 179.117 27.3594 181.883 30.0312C184.648 32.6562 186.172 36.1484 186.453 40.5078C186.453 42.6172 185.727 44.3281 184.273 45.6406C182.82 46.9062 181.109 47.5859 179.141 47.6797C177.078 47.6797 175.391 46.9531 174.078 45.5C172.766 44.0469 172.062 42.3125 171.969 40.2969V39.9453C172.016 39.9453 172.039 39.9922 172.039 40.0859C172.039 40.1328 172.039 40.2266 172.039 40.3672C172.086 40.4609 172.133 40.5547 172.18 40.6484V40.9297L172.109 41L172.039 40.8594C171.992 40.7656 171.969 40.6953 171.969 40.6484C171.969 40.6016 171.922 40.4141 171.828 40.0859C172.109 40.5547 172.25 40.8125 172.25 40.8594C172.25 40.9062 172.273 40.9531 172.32 41H172.25L171.617 40.0859V39.9453L172.25 40.6484V40.7891C172.203 40.7891 172.109 40.7188 171.969 40.5781L171.266 39.8047C171.312 39.8047 171.359 39.8281 171.406 39.875C171.453 39.9219 171.547 40.0156 171.688 40.1562C171.875 40.2969 172.016 40.4141 172.109 40.5078L171.898 40.2969L171.477 40.0859C171.102 39.8047 170.727 39.5703 170.352 39.3828L169.859 39.1016H170C170.281 39.2422 170.469 39.3359 170.562 39.3828C170.703 39.4297 170.797 39.4766 170.844 39.5234C170.891 39.5234 170.914 39.5469 170.914 39.5938L170.844 39.5234L169.578 39.1016C169.016 39.1016 168.664 39.0312 168.523 38.8906C168.945 38.8906 169.25 38.9375 169.438 39.0312C169.109 39.0312 168.875 39.0078 168.734 38.9609L166.203 39.0312C166.859 39.0312 167.211 39.0078 167.258 38.9609L166.344 39.0312C165.875 39.0781 165.406 39.2188 164.938 39.4531C164.469 39.6875 164.094 39.8047 163.812 39.8047L164.797 39.3828L164.164 39.7344C163.695 39.875 163.25 40.1094 162.828 40.4375C162.5 40.5312 162.242 40.6719 162.055 40.8594C162.148 40.8594 162.289 40.7891 162.477 40.6484C162.711 40.4609 162.828 40.3438 162.828 40.2969C162.734 40.5781 162.406 40.8828 161.844 41.2109C161.469 41.4922 161.211 41.75 161.07 41.9844C160.93 42.1719 160.789 42.3359 160.648 42.4766C160.648 42.3828 160.789 42.1953 161.07 41.9141L161.211 41.6328V41.7031C161.164 41.7969 161.094 41.9141 161 42.0547C160.906 42.1953 160.766 42.4062 160.578 42.6875C160.438 42.9219 160.297 43.1797 160.156 43.4609C160.016 43.6953 159.898 43.9062 159.805 44.0938L159.664 44.375L160.086 43.3203C160.086 43.4609 160.062 43.5781 160.016 43.6719C159.969 43.7656 159.922 43.8594 159.875 43.9531L159.383 45.6406C159.383 45.8281 159.359 45.9922 159.312 46.1328C159.312 46.2734 159.289 46.3438 159.242 46.3438L159.453 45.2188V45.4297C159.406 45.5234 159.383 45.9922 159.383 46.8359V47.75H159.312V47.2578L159.242 46.9766C159.242 46.9297 159.266 46.9062 159.312 46.9062C159.359 47.2812 159.383 47.5156 159.383 47.6094C159.43 47.6562 159.477 47.75 159.523 47.8906C159.617 48.4531 159.711 48.8516 159.805 49.0859C159.898 49.3203 159.945 49.4609 159.945 49.5078C159.898 49.4609 159.852 49.3906 159.805 49.2969C159.805 49.1562 159.781 49.0391 159.734 48.9453C159.688 48.8047 159.664 48.6875 159.664 48.5938L159.594 48.5234L159.875 49.2266C161.141 51.6641 162.641 53.9844 164.375 56.1875C165.5 57.7344 166.578 59.3281 167.609 60.9688C169.906 64.7188 171.055 68.6797 171.055 72.8516C171.055 74.2578 170.914 75.6875 170.633 77.1406C169.367 82.7188 166.438 87.1953 161.844 90.5703C157.484 93.6641 152.703 95.2109 147.5 95.2109ZM156.711 96.2656C151.508 96.2656 146.375 95.6797 141.312 94.5078C139.344 93.9453 137.914 92.7969 137.023 91.0625C136.414 89.8906 136.109 88.6484 136.109 87.3359C136.109 84.5234 137.328 82.4844 139.766 81.2188C140.938 80.6562 142.133 80.375 143.352 80.375C144.008 80.375 144.664 80.4453 145.32 80.5859C147.43 81.0078 148.625 81.2188 148.906 81.2188C148.719 81.2188 148.555 81.2188 148.414 81.2188C148.273 81.1719 148.109 81.1484 147.922 81.1484C147.781 81.1016 147.664 81.0781 147.57 81.0781C147.477 81.0312 147.453 81.0078 147.5 81.0078L147.992 81.0781C150.992 81.5 154.109 81.7109 157.344 81.7109C159.594 81.7109 161.867 81.6172 164.164 81.4297C164.211 81.3828 164.305 81.3594 164.445 81.3594C164.586 81.3594 164.703 81.3359 164.797 81.2891H165.078H164.938C164.844 81.3359 164.68 81.3828 164.445 81.4297C164.211 81.4297 163.977 81.4297 163.742 81.4297C163.695 81.4297 163.695 81.4297 163.742 81.4297L164.445 81.3594C169.18 80.6562 172.672 79.7891 174.922 78.7578L175.695 78.4766L175.625 78.5469C175.531 78.5938 175.438 78.6406 175.344 78.6875C175.25 78.6875 175.156 78.7109 175.062 78.7578C174.969 78.8047 174.875 78.8516 174.781 78.8984C174.688 78.8984 174.641 78.9219 174.641 78.9688C174.641 78.9219 174.734 78.875 174.922 78.8281C175.109 78.7344 175.273 78.6641 175.414 78.6172C175.555 78.5234 175.719 78.4531 175.906 78.4062C177.828 77.5156 179.914 76.3203 182.164 74.8203C182.258 74.8203 182.422 74.7031 182.656 74.4688L182.164 74.8203C182.398 74.5859 182.562 74.4688 182.656 74.4688L183.43 73.8359C185.023 72.4297 186.078 71.4219 186.594 70.8125L187.086 70.1797C187.414 69.6641 187.742 69.2891 188.07 69.0547L187.297 70.0391C187.344 70.0391 187.461 69.875 187.648 69.5469C187.836 69.4531 188.117 69.0781 188.492 68.4219C189.945 66.3594 191.188 64.2031 192.219 61.9531L192.359 61.6719L193.555 58.2969C194.211 56.375 195.359 54.9453 197 54.0078C198.125 53.4453 199.297 53.1641 200.516 53.1641C203.375 53.1641 205.484 54.3828 206.844 56.8203C207.453 57.9453 207.758 59.0938 207.758 60.2656C207.758 60.9219 207.664 61.6016 207.477 62.3047C204.852 70.8359 200.258 78.1016 193.695 84.1016C184.086 92.2109 171.758 96.2656 156.711 96.2656Z" fill="white"/>
<path d="M223.719 94.5078C214.625 94.5078 207.125 92.3047 201.219 87.8984C194.797 83.2578 191.586 76.6953 191.586 68.2109C191.586 66.8984 191.82 64.7188 192.289 61.6719C192.711 58.5781 193.977 54.7812 196.086 50.2812C199.32 42.7344 204.102 36.3828 210.43 31.2266C215.773 26.8672 221.562 24.6875 227.797 24.6875C231.406 24.6875 234.922 25.4844 238.344 27.0781C244.344 30.3125 247.344 35.5625 247.344 42.8281C247.344 46.7188 246.242 50.3984 244.039 53.8672C241.414 57.7109 238.109 60.6406 234.125 62.6562C228.828 65.3281 223.18 66.6641 217.18 66.6641C210.148 66.6641 204.008 64.8359 198.758 61.1797C196.508 59.4453 195.383 57.4297 195.383 55.1328C195.383 53.9141 195.711 52.6016 196.367 51.1953C197.727 48.8516 199.836 47.6797 202.695 47.6797C203.961 47.6797 205.18 48.0312 206.352 48.7344C207.477 49.625 208.391 50.1875 209.094 50.4219L208.953 50.3516C209.844 50.9609 211.602 51.4766 214.227 51.8984L214.719 52.0391L214.578 51.9688C214.25 51.9688 214.039 51.9453 213.945 51.8984H213.734C214.344 51.8984 214.883 51.9453 215.352 52.0391C216.148 52.0859 216.969 52.1094 217.812 52.1094C218.656 52.1094 219.5 52.0625 220.344 51.9688H220.555L220.977 51.8984C222.008 51.7109 223.789 51.2188 226.32 50.4219L225.547 50.6328C225.969 50.6328 226.953 50.1641 228.5 49.2266C228.969 48.7578 229.32 48.5234 229.555 48.5234L228.781 49.0859C229.812 48.2891 230.562 47.6094 231.031 47.0469L231.594 46.4844C231.547 46.5312 231.5 46.6016 231.453 46.6953C231.406 46.7891 231.359 46.8594 231.312 46.9062C231.312 46.9062 231.219 47.0234 231.031 47.2578L231.242 46.8359C231.57 46.3672 231.875 45.875 232.156 45.3594C232.203 45.3594 232.227 45.3359 232.227 45.2891C232.273 45.1953 232.297 45.125 232.297 45.0781C232.344 45.0312 232.438 44.8672 232.578 44.5859L232.297 45.4297L232.719 43.8828C232.719 43.6484 232.789 43.3906 232.93 43.1094L232.789 44.2344C232.789 43.8594 232.812 43.5547 232.859 43.3203C232.859 42.2422 232.883 41.6797 232.93 41.6328L233.07 41.9141V42.5469H233C233 42.3594 232.93 42.125 232.789 41.8438C232.789 41.5156 232.695 41.0938 232.508 40.5781C232.602 40.9062 232.719 41.2109 232.859 41.4922C232.812 41.4453 232.742 41.3516 232.648 41.2109C232.555 41.0234 232.484 40.8594 232.438 40.7188C232.391 40.5781 232.32 40.4609 232.227 40.3672C232.18 40.2266 232.156 40.1328 232.156 40.0859C232.156 40.1328 232.203 40.2266 232.297 40.3672C232.391 40.5078 232.461 40.6484 232.508 40.7891C232.602 40.8828 232.672 40.9297 232.719 40.9297L232.648 40.7891C232.555 40.7422 232.461 40.6719 232.367 40.5781C232.273 40.4375 232.203 40.3438 232.156 40.2969C232.109 40.25 231.969 40.1328 231.734 39.9453C232.25 40.3203 232.508 40.5312 232.508 40.5781L231.383 39.8047C231.102 39.7109 230.82 39.5703 230.539 39.3828L231.523 39.9453L231.102 39.6641C230.023 39.3828 229.461 39.2422 229.414 39.2422C229.414 39.1953 229.273 39.1484 228.992 39.1016L230.047 39.2422C229.719 39.2422 229.438 39.2188 229.203 39.1719L227.797 39.1016C227.328 39.1016 226.766 39.1484 226.109 39.2422L227.164 39.1016C226.039 39.2891 224.75 39.6172 223.297 40.0859C223.531 39.9922 223.719 39.9219 223.859 39.875C224.047 39.8281 224.164 39.7812 224.211 39.7344C224.07 39.9688 223.625 40.2031 222.875 40.4375L222.172 40.7188C220.578 41.6562 219.711 42.1953 219.57 42.3359H219.5L220.203 41.8438V41.9141C220.156 41.9609 220.039 42.0547 219.852 42.1953C219.711 42.2891 219.547 42.4297 219.359 42.6172C219.219 42.7578 219.055 42.8984 218.867 43.0391C217.32 44.3516 215.914 45.7578 214.648 47.2578C214.414 47.5859 214.297 47.7969 214.297 47.8906L214.438 47.6797C214.531 47.5859 214.672 47.3516 214.859 46.9766C214.625 47.4453 214.32 47.8906 213.945 48.3125C213.383 49.0156 212.68 50.0234 211.836 51.3359C210.43 53.6328 209.539 55.3203 209.164 56.3984C208.836 56.8203 208.672 57.1484 208.672 57.3828H208.602L209.023 56.5391C208.93 56.6328 208.602 57.4766 208.039 59.0703C207.148 61.5078 206.586 63.5 206.352 65.0469L206.141 65.75V65.9609H206.07L206.211 65.3984L206 68.0703C206 68.9609 206.023 69.5 206.07 69.6875C206.117 69.8281 206.141 69.9922 206.141 70.1797V70.3203C206.094 70.3203 206.07 70.1562 206.07 69.8281C206.07 69.9219 206.07 70.0391 206.07 70.1797C206.117 70.2734 206.164 70.4375 206.211 70.6719C206.258 70.8594 206.305 71.0938 206.352 71.375C206.445 71.6562 206.539 71.9375 206.633 72.2188C206.727 72.4531 206.773 72.5938 206.773 72.6406L206.352 71.5859L206.562 72.1484C206.891 72.8047 207.289 73.4844 207.758 74.1875L207.969 74.6797H208.039C208.039 74.6328 208.016 74.6094 207.969 74.6094C207.734 74.375 207.594 74.2344 207.547 74.1875C207.547 74.1406 207.5 74.0234 207.406 73.8359L207.688 74.1172C207.875 74.3047 208.016 74.4922 208.109 74.6797L210.008 76.5078L209.938 76.4375C209.844 76.4375 209.609 76.25 209.234 75.875C209.281 75.875 209.516 76.0156 209.938 76.2969C210.172 76.5312 210.898 77 212.117 77.7031C212.352 77.7969 212.562 77.9141 212.75 78.0547C213.219 78.1953 213.453 78.3125 213.453 78.4062L212.469 77.9844V77.9141C212.516 77.9609 212.609 78.0078 212.75 78.0547C212.938 78.1016 213.078 78.1484 213.172 78.1953C213.641 78.3828 214.133 78.5469 214.648 78.6875C216.477 79.2969 217.812 79.6016 218.656 79.6016L217.461 79.5312C217.789 79.5312 218.094 79.5547 218.375 79.6016C220.625 79.8359 222.242 79.9531 223.227 79.9531C225.758 79.9531 227.305 79.9062 227.867 79.8125L228.711 79.6719L228.57 79.7422L227.586 79.8125L227.938 79.7422C230.703 79.4141 233.891 78.6406 237.5 77.4219C237.594 77.375 237.711 77.3281 237.852 77.2812C238.039 77.2344 238.156 77.1875 238.203 77.1406C237.734 77.375 237.453 77.4922 237.359 77.4922L237.219 77.5625L237.852 77.2812C239.258 76.7188 240.641 76.0391 242 75.2422C244.203 73.9766 245.492 73.1562 245.867 72.7812H245.938L245.094 73.4141C245.094 73.3203 245.422 73.0625 246.078 72.6406L247.625 71.3047C249.781 69.3828 251.281 67.8125 252.125 66.5938L251.422 67.3672L252.406 66.2422C253.906 64.1797 255.078 62.2109 255.922 60.3359C256.156 59.7734 256.344 59.4219 256.484 59.2812C256.531 59.0938 256.578 58.9766 256.625 58.9297L256.344 59.4922C257 57.6641 258.148 56.2109 259.789 55.1328C260.914 54.5234 262.086 54.2188 263.305 54.2188C263.961 54.2188 264.641 54.3125 265.344 54.5C267.266 55.0156 268.695 56.1641 269.633 57.9453C270.289 59.1641 270.617 60.3828 270.617 61.6016C270.617 62.2578 270.5 62.8906 270.266 63.5C266.75 72.5469 261.055 79.8125 253.18 85.2969C244.367 91.4375 234.547 94.5078 223.719 94.5078Z" fill="white"/>
</svg>
